<svg width="20" height="19" viewBox="0 0 20 19" fill="none" xmlns="http://www.w3.org/2000/svg">
  <path
    d="M14.0235 6.84794H19.0155L15.8345 3.66494C14.8104 2.64081 13.5347 1.90433 12.1357 1.52955C10.7367 1.15476 9.26371 1.15487 7.86477 1.52986C6.46583 1.90486 5.19026 2.64153 4.1663 3.66581C3.14233 4.69009 2.40606 5.96588 2.0315 7.36494M0.985497 17.1439V12.1519M0.985497 12.1519H5.9775M0.985497 12.1519L4.1655 15.3349C5.18961 16.3591 6.46529 17.0955 7.86429 17.4703C9.26328 17.8451 10.7363 17.845 12.1352 17.47C13.5342 17.095 14.8097 16.3584 15.8337 15.3341C16.8577 14.3098 17.5939 13.034 17.9685 11.6349M19.0155 1.85594V6.84594"
    stroke="black" stroke-width="1.5" stroke-linecap="round" stroke-linejoin="round" />
</svg>