<svg width="21" height="22" viewBox="0 0 21 22" fill="none" xmlns="http://www.w3.org/2000/svg">
  <path
    d="M12.4144 9.81619C12.4144 9.16281 12.9442 8.63367 13.5969 8.63367H13.8334C14.4607 8.63367 15.0622 8.88284 15.5058 9.32637C15.9493 9.7699 16.1985 10.3715 16.1985 10.9987V12.1812C16.1985 12.8346 16.7283 13.3638 17.381 13.3638H18.5635C19.1908 13.3638 19.7923 13.6129 20.2359 14.0565C20.6794 14.5 20.9286 15.1015 20.9286 15.7288V17.8573C20.9286 18.5101 20.3988 19.0399 19.746 19.0399H13.5969C13.2833 19.0399 12.9825 18.9153 12.7608 18.6935C12.539 18.4717 12.4144 18.171 12.4144 17.8573V9.81619Z"
    fill="black" />
  <path
    d="M17.1445 10.9988C17.1456 10.2032 16.8591 9.43402 16.3379 8.83301C17.3932 9.11048 18.3558 9.66328 19.1274 10.4349C19.899 11.2064 20.4518 12.1691 20.7293 13.2244C20.1283 12.7032 19.3591 12.4167 18.5635 12.4178H17.381C17.3183 12.4178 17.2581 12.3929 17.2138 12.3485C17.1694 12.3042 17.1445 12.244 17.1445 12.1813V10.9988ZM10.7589 11.4718H11.4684V17.8574C11.4684 18.4219 11.6926 18.9633 12.0918 19.3625C12.491 19.7617 13.0324 19.9859 13.5969 19.9859H18.0905V20.6954C18.0905 21.3482 17.5607 21.878 16.908 21.878H10.7589C10.4453 21.878 10.1445 21.7534 9.92271 21.5316C9.70094 21.3098 9.57635 21.0091 9.57635 20.6954V12.6543C9.57635 12.0009 10.1061 11.4718 10.7589 11.4718Z"
    fill="black" />
  <path
    d="M11.9186 5.87227H16.0714L13.4252 3.172C12.5732 2.30319 11.512 1.67841 10.3481 1.36046C9.18432 1.04251 7.95892 1.04261 6.79514 1.36073C5.63136 1.67886 4.57022 2.3038 3.71838 3.17274C2.86655 4.04168 2.25404 5.12399 1.94244 6.31086M1.07227 14.6068V10.3719M1.07227 10.3719H5.22512M1.07227 10.3719L3.71772 13.0721C4.56968 13.9409 5.63092 14.5657 6.79474 14.8837C7.95857 15.2016 9.18396 15.2015 10.3477 14.8834C11.5115 14.5653 12.5727 13.9403 13.4245 13.0714C14.2763 12.2025 14.8888 11.1202 15.2004 9.93328M16.0714 1.63736V5.87058"
    stroke="black" stroke-width="1.5" stroke-linecap="round" stroke-linejoin="round" />
</svg>